<svg width="58" height="64" viewBox="0 0 58 64" fill="none" xmlns="http://www.w3.org/2000/svg">
<mask id="path-1-inside-1_2_69" fill="white">
<path fill-rule="evenodd" clip-rule="evenodd" d="M28.8316 6.90679L28.8316 6.90678L27.392 8.721L27.3979 8.71361L28.8316 6.90679ZM27.388 8.72603L27.3821 8.73345L26.5251 9.81354L26.7867 10.0211C26.0246 13.4705 29.8175 19.5316 36.1457 24.553C42.4739 29.5745 49.2384 31.8906 52.4243 30.3645L52.686 30.5722L29.6208 59.6398L29.3591 59.4322C26.1732 60.9583 19.4088 58.6421 13.0806 53.6207C6.75233 48.5993 2.95947 42.5382 3.72153 39.0888L3.45989 38.8812L4.31859 37.7991L4.32482 37.7912L4.33107 37.7833L27.388 8.72603Z"/>
</mask>
<path fill-rule="evenodd" clip-rule="evenodd" d="M28.8316 6.90679L28.8316 6.90678L27.392 8.721L27.3979 8.71361L28.8316 6.90679ZM27.388 8.72603L27.3821 8.73345L26.5251 9.81354L26.7867 10.0211C26.0246 13.4705 29.8175 19.5316 36.1457 24.553C42.4739 29.5745 49.2384 31.8906 52.4243 30.3645L52.686 30.5722L29.6208 59.6398L29.3591 59.4322C26.1732 60.9583 19.4088 58.6421 13.0806 53.6207C6.75233 48.5993 2.95947 42.5382 3.72153 39.0888L3.45989 38.8812L4.31859 37.7991L4.32482 37.7912L4.33107 37.7833L27.388 8.72603Z" fill="white" fill-opacity="0.2"/>
<path d="M28.8316 6.90679L28.9882 7.03111L29.1126 6.87444L28.9559 6.75012L28.8316 6.90679ZM28.8316 6.90678L28.9559 6.75011L28.7992 6.62579L28.6749 6.78246L28.8316 6.90678ZM27.392 8.721L27.2353 8.59668L27.5484 8.84565L27.392 8.721ZM27.3979 8.71361L27.5543 8.83826L27.5545 8.83793L27.3979 8.71361ZM27.388 8.72603L27.5449 8.85001L27.2313 8.60172L27.388 8.72603ZM27.3821 8.73345L27.5388 8.85777L27.5391 8.85743L27.3821 8.73345ZM26.5251 9.81354L26.3684 9.68923L26.2441 9.8459L26.4008 9.97021L26.5251 9.81354ZM26.7867 10.0211L26.982 10.0643L27.009 9.94219L26.911 9.86447L26.7867 10.0211ZM52.4243 30.3645L52.5486 30.2079L52.4507 30.1302L52.3379 30.1842L52.4243 30.3645ZM52.686 30.5722L52.8426 30.6965L52.967 30.5398L52.8103 30.4155L52.686 30.5722ZM29.6208 59.6398L29.4965 59.7965L29.6531 59.9208L29.7775 59.7642L29.6208 59.6398ZM29.3591 59.4322L29.4834 59.2755L29.3855 59.1978L29.2727 59.2518L29.3591 59.4322ZM3.72153 39.0888L3.91682 39.132L3.9438 39.0099L3.84585 38.9322L3.72153 39.0888ZM3.45989 38.8812L3.30322 38.7569L3.17891 38.9136L3.33558 39.0379L3.45989 38.8812ZM4.31859 37.7991L4.47526 37.9234L4.47547 37.9231L4.31859 37.7991ZM4.32482 37.7912L4.16836 37.6666L4.16794 37.6671L4.32482 37.7912ZM4.33107 37.7833L4.48753 37.9079L4.48774 37.9076L4.33107 37.7833ZM28.9559 6.75012L28.9559 6.75011L28.7072 7.06345L28.7073 7.06346L28.9559 6.75012ZM28.6749 6.78246L27.2353 8.59668L27.5486 8.84532L28.9882 7.0311L28.6749 6.78246ZM27.2415 8.58896L27.2356 8.59635L27.5484 8.84565L27.5543 8.83826L27.2415 8.58896ZM28.6749 6.78248L27.2412 8.58929L27.5545 8.83793L28.9882 7.03111L28.6749 6.78248ZM27.231 8.60205L27.2252 8.60947L27.5391 8.85743L27.5449 8.85001L27.231 8.60205ZM27.2255 8.60913L26.3684 9.68923L26.6817 9.93786L27.5388 8.85777L27.2255 8.60913ZM26.4008 9.97021L26.6624 10.1778L26.911 9.86447L26.6494 9.65687L26.4008 9.97021ZM26.5914 9.978C26.1924 11.7838 26.988 14.2204 28.6388 16.8052C30.2967 19.4011 32.8431 22.1877 36.0214 24.7097L36.27 24.3963C33.1201 21.8969 30.606 19.1422 28.9759 16.5899C27.3387 14.0265 26.6189 11.7079 26.982 10.0643L26.5914 9.978ZM36.0214 24.7097C39.1997 27.2317 42.4921 29.0781 45.3968 30.1027C48.2892 31.1229 50.8428 31.3438 52.5107 30.5449L52.3379 30.1842C50.8199 30.9113 48.3983 30.7372 45.5299 29.7255C42.6739 28.7181 39.4199 26.8958 36.27 24.3963L36.0214 24.7097ZM52.3 30.5212L52.5617 30.7288L52.8103 30.4155L52.5486 30.2079L52.3 30.5212ZM29.7775 59.7642L52.8426 30.6965L52.5293 30.4479L29.4641 59.5155L29.7775 59.7642ZM29.2348 59.5889L29.4965 59.7965L29.7451 59.4832L29.4834 59.2755L29.2348 59.5889ZM12.9562 53.7774C16.1346 56.2993 19.4269 58.1458 22.3317 59.1704C25.224 60.1905 27.7776 60.4115 29.4455 59.6126L29.2727 59.2518C27.7547 59.979 25.3331 59.8049 22.4647 58.7931C19.6087 57.7858 16.3548 55.9635 13.2049 53.464L12.9562 53.7774ZM3.52624 39.0457C3.12729 40.8515 3.92283 43.2881 5.57363 45.8729C7.23153 48.4688 9.77792 51.2554 12.9562 53.7774L13.2049 53.464C10.055 50.9646 7.54081 48.2099 5.91074 45.6576C4.27357 43.0942 3.55372 40.7756 3.91682 39.132L3.52624 39.0457ZM3.33558 39.0379L3.59722 39.2455L3.84585 38.9322L3.58421 38.7245L3.33558 39.0379ZM4.16192 37.6747L3.30322 38.7569L3.61656 39.0055L4.47526 37.9234L4.16192 37.6747ZM4.16794 37.6671L4.16171 37.675L4.47547 37.9231L4.4817 37.9152L4.16794 37.6671ZM4.17462 37.6587L4.16836 37.6666L4.48127 37.9158L4.48753 37.9079L4.17462 37.6587ZM27.2313 8.60172L4.1744 37.659L4.48774 37.9076L27.5447 8.85035L27.2313 8.60172Z" fill="white" fill-opacity="0.5" mask="url(#path-1-inside-1_2_69)"/>
<ellipse cx="39.8937" cy="19.8295" rx="16.6982" ry="6.95757" transform="rotate(38.4319 39.8937 19.8295)" fill="white" fill-opacity="0.2"/>
<path fill-rule="evenodd" clip-rule="evenodd" d="M45.5327 2.16274L45.5327 2.16273L44.959 2.88582L44.9606 2.88375L45.5327 2.16274ZM44.9532 2.89302L44.9516 2.8951L44.6101 3.32544L44.7148 3.40847C44.41 4.78824 45.9271 7.21264 48.4584 9.22121C50.9897 11.2298 53.6954 12.1562 54.9698 11.5458L55.0745 11.6289L45.8484 23.256L45.7437 23.1729C44.4694 23.7833 41.7636 22.8569 39.2323 20.8483C36.701 18.8397 35.1839 16.4153 35.4887 15.0355L35.3841 14.9525L35.726 14.5216L35.73 14.5165L35.7341 14.5114L44.9532 2.89302Z" fill="white" fill-opacity="0.2"/>
<ellipse cx="49.9576" cy="7.3318" rx="6.67926" ry="2.78303" transform="rotate(38.4319 49.9576 7.3318)" fill="white" fill-opacity="0.2"/>
<path fill-rule="evenodd" clip-rule="evenodd" d="M38.7823 20.8703C41.672 23.1633 44.789 24.046 45.7444 22.842C46.6998 21.638 45.1318 18.8031 42.2421 16.5102C39.3525 14.2172 36.2354 13.3345 35.28 14.5385C34.3247 15.7426 35.8927 18.5774 38.7823 20.8703ZM39.502 20.0216C41.6845 21.7535 43.9028 22.5916 44.4566 21.8937C45.0104 21.1957 43.69 19.226 41.5075 17.4942C39.325 15.7624 37.1068 14.9242 36.553 15.6222C35.9992 16.3201 37.3195 18.2898 39.502 20.0216Z" fill="white" fill-opacity="0.2"/>
<path fill-rule="evenodd" clip-rule="evenodd" d="M47.9426 1.74078L41.2951 10.1182L41.0361 10.4446L41.1145 10.5068C40.8863 11.5397 42.022 13.3546 43.9169 14.8581C45.8118 16.3617 47.8373 17.0553 48.7913 16.5983L48.8696 16.6605L49.1286 16.3341L55.7761 7.95663L55.6977 7.89446C54.7438 8.35141 52.7183 7.65787 50.8234 6.15429C48.9285 4.6507 47.7928 2.83583 48.021 1.80295L47.9426 1.74078Z" fill="#DA7600"/>
<ellipse cx="51.9975" cy="4.67462" rx="5" ry="2" transform="rotate(38.4319 51.9975 4.67462)" fill="#AA5C00"/>
<circle cx="23.4361" cy="34.6003" r="1.75535" transform="rotate(38.4319 23.4361 34.6003)" fill="white" fill-opacity="0.5" stroke="white" stroke-width="0.2"/>
<circle cx="25.4148" cy="40.3151" r="1.29151" transform="rotate(38.4319 25.4148 40.3151)" fill="white" fill-opacity="0.5" stroke="white" stroke-width="0.2"/>
<circle cx="31.2563" cy="33.6999" r="3.6107" transform="rotate(38.4319 31.2563 33.6999)" fill="white" fill-opacity="0.5" stroke="white" stroke-width="0.2"/>
<path fill-rule="evenodd" clip-rule="evenodd" d="M29.6029 56.8709L29.4815 56.7746C26.593 58.1582 20.4601 56.0582 14.7226 51.5056C8.98513 46.9529 5.54634 41.4577 6.23725 38.3303L6 38.142L9.28668 34C16.4569 40.4078 25.7628 41.3914 30.2252 40.542C33.8093 39.8598 38.9739 41.2654 40 43.7681L29.6029 56.8709Z" fill="url(#paint0_linear_2_69)"/>
<defs>
<linearGradient id="paint0_linear_2_69" x1="17.5" y1="54" x2="28.9919" y2="40.6333" gradientUnits="userSpaceOnUse">
<stop stop-color="#D45AFF"/>
<stop offset="1" stop-color="#5EFFF5"/>
</linearGradient>
</defs>
</svg>
