<svg width="58" height="64" viewBox="0 0 58 64" fill="none" xmlns="http://www.w3.org/2000/svg">
<path fill-rule="evenodd" clip-rule="evenodd" d="M28.8316 6.90679L28.8316 6.90678L27.392 8.721L27.3979 8.71361L28.8316 6.90679ZM27.388 8.72603L27.3821 8.73345L26.5251 9.81354L26.7867 10.0211C26.0246 13.4705 29.8175 19.5316 36.1457 24.553C42.4739 29.5745 49.2384 31.8906 52.4243 30.3645L52.686 30.5722L29.6208 59.6398L29.3591 59.4322C26.1732 60.9583 19.4088 58.6421 13.0806 53.6207C6.75233 48.5993 2.95947 42.5382 3.72153 39.0888L3.45989 38.8812L4.31859 37.7991L4.32482 37.7912L4.33107 37.7833L27.388 8.72603Z" fill="white" fill-opacity="0.2"/>
<ellipse cx="39.8937" cy="19.8295" rx="16.6982" ry="6.95757" transform="rotate(38.4319 39.8937 19.8295)" fill="white" fill-opacity="0.2"/>
<path fill-rule="evenodd" clip-rule="evenodd" d="M45.5327 2.16274L45.5327 2.16273L44.959 2.88582L44.9606 2.88375L45.5327 2.16274ZM44.9532 2.89302L44.9516 2.8951L44.6101 3.32544L44.7148 3.40847C44.41 4.78824 45.9271 7.21264 48.4584 9.22121C50.9897 11.2298 53.6954 12.1562 54.9698 11.5458L55.0745 11.6289L45.8484 23.256L45.7437 23.1729C44.4694 23.7833 41.7636 22.8569 39.2323 20.8483C36.701 18.8397 35.1839 16.4153 35.4887 15.0355L35.3841 14.9525L35.726 14.5216L35.73 14.5165L35.7341 14.5114L44.9532 2.89302Z" fill="white" fill-opacity="0.2"/>
<ellipse cx="49.9576" cy="7.3318" rx="6.67926" ry="2.78303" transform="rotate(38.4319 49.9576 7.3318)" fill="white" fill-opacity="0.2"/>
<path fill-rule="evenodd" clip-rule="evenodd" d="M38.7823 20.8703C41.672 23.1633 44.789 24.046 45.7444 22.842C46.6998 21.638 45.1318 18.8031 42.2421 16.5102C39.3525 14.2172 36.2354 13.3345 35.28 14.5385C34.3247 15.7426 35.8927 18.5774 38.7823 20.8703ZM39.502 20.0216C41.6845 21.7535 43.9028 22.5916 44.4566 21.8937C45.0104 21.1957 43.69 19.226 41.5075 17.4942C39.325 15.7624 37.1068 14.9242 36.553 15.6222C35.9991 16.3201 37.3195 18.2898 39.502 20.0216Z" fill="white" fill-opacity="0.2"/>
<path fill-rule="evenodd" clip-rule="evenodd" d="M47.9426 1.74078L41.2951 10.1182L41.0361 10.4446L41.1145 10.5068C40.8863 11.5397 42.022 13.3546 43.9169 14.8581C45.8118 16.3617 47.8373 17.0553 48.7913 16.5983L48.8696 16.6605L49.1286 16.3341L55.7761 7.95663L55.6977 7.89446C54.7438 8.35141 52.7183 7.65787 50.8234 6.15429C48.9285 4.6507 47.7928 2.83583 48.021 1.80295L47.9426 1.74078Z" fill="#DA7600"/>
<ellipse cx="51.9975" cy="4.67462" rx="5" ry="2" transform="rotate(38.4319 51.9975 4.67462)" fill="#AA5C00"/>
</svg>
